HIERARCHY
ROOT root
{
	OFFSET	0	13.1	24.9
	CHANNELS 6  Xposition Yposition Zposition Xrotation Yrotation Zrotation
	JOINT spine_1
	{
		OFFSET	0	9.99999	0
		CHANNELS 3  Xrotation Yrotation Zrotation
		JOINT spine_2
		{
			OFFSET	0	112	-10
			CHANNELS 3  Xrotation Yrotation Zrotation
			JOINT spine_3
			{
				OFFSET	0	206.5	19.3
				CHANNELS 3  Xrotation Yrotation Zrotation
				JOINT spine_4
				{
					OFFSET	0	110.4	14.6
					CHANNELS 3  Xrotation Yrotation Zrotation
					JOINT neck_1
					{
						OFFSET	0	71.8	-50.3
						CHANNELS 3  Xrotation Yrotation Zrotation
						JOINT neck_2
						{
							OFFSET	0	86.2	-25.8
							CHANNELS 3  Xrotation Yrotation Zrotation
							JOINT head_ee
							{
								OFFSET	0	179.8	-8.7
								CHANNELS 3  Xrotation Yrotation Zrotation
								End Site
								{
									OFFSET	1	0	0
								}
							}
						}
					}
					JOINT left_clavicle
					{
						OFFSET	-43.2	22.4	-70.8
						CHANNELS 3  Xrotation Yrotation Zrotation
						JOINT left_shoulder
						{
							OFFSET	-93.9	-5.79999	48.7
							CHANNELS 3  Xrotation Yrotation Zrotation
							JOINT left_elbow
							{
								OFFSET	-291.4	-30.8	15.2
								CHANNELS 3  Xrotation Yrotation Zrotation
								JOINT left_lowarm_twist
								{
									OFFSET	-110.7	-3.89999	13.6
									CHANNELS 3  Xrotation Yrotation Zrotation
									JOINT left_hand
									{
										OFFSET	-110.7	-3.89999	13.6
										CHANNELS 3  Xrotation Yrotation Zrotation
										JOINT left_ee
										{
											OFFSET	-80.8	-5.10001	12.1
											CHANNELS 3  Xrotation Yrotation Zrotation
											End Site
											{
												OFFSET	1	0	0
											}
										}
									}
								}
							}
						}
					}
					JOINT right_clavicle
					{
						OFFSET	43.2	22.4	-70.8
						CHANNELS 3  Xrotation Yrotation Zrotation
						JOINT right_shoulder
						{
							OFFSET	93.9	-5.79999	48.7
							CHANNELS 3  Xrotation Yrotation Zrotation
							JOINT right_elbow
							{
								OFFSET	291.4	-30.8	15.2
								CHANNELS 3  Xrotation Yrotation Zrotation
								JOINT right_lowarm_twist
								{
									OFFSET	110.7	-3.89999	13.6
									CHANNELS 3  Xrotation Yrotation Zrotation
									JOINT right_hand
									{
										OFFSET	110.7	-3.89999	13.6
										CHANNELS 3  Xrotation Yrotation Zrotation
										JOINT right_ee
										{
											OFFSET	80.8	-5.10001	12.1
											CHANNELS 3  Xrotation Yrotation Zrotation
											End Site
											{
												OFFSET	1	0	0
											}
										}
									}
								}
							}
						}
					}
				}
			}
		}
	}
	JOINT left_hip
	{
		OFFSET	-82.8	-127.5	0.300001
		CHANNELS 3  Xrotation Yrotation Zrotation
		JOINT left_knee
		{
			OFFSET	-28.2	-396.7	2.2
			CHANNELS 3  Xrotation Yrotation Zrotation
			JOINT left_ankle
			{
				OFFSET	-11.7	-411.3	35.4
				CHANNELS 3  Xrotation Yrotation Zrotation
				JOINT left_toes
				{
					OFFSET	0	-60	-88.6
					CHANNELS 3  Xrotation Yrotation Zrotation
					JOINT left_foot_ee
					{
						OFFSET	-22.5	-16.5	-42.2
						CHANNELS 3  Xrotation Yrotation Zrotation
						End Site
						{
							OFFSET	1	0	0
						}
					}
				}
			}
		}
	}
	JOINT right_hip
	{
		OFFSET	82.8	-127.5	0.300001
		CHANNELS 3  Xrotation Yrotation Zrotation
		JOINT right_knee
		{
			OFFSET	28.2	-396.7	2.2
			CHANNELS 3  Xrotation Yrotation Zrotation
			JOINT right_ankle
			{
				OFFSET	11.7	-411.3	35.4
				CHANNELS 3  Xrotation Yrotation Zrotation
				JOINT right_toes
				{
					OFFSET	0	-60	-88.6
					CHANNELS 3  Xrotation Yrotation Zrotation
					JOINT right_foot_ee
					{
						OFFSET	22.5	-16.5	-42.2
						CHANNELS 3  Xrotation Yrotation Zrotation
						End Site
						{
							OFFSET	1	0	0
						}
					}
				}
			}
		}
	}
}
MOTION
Frames: 6
Frame Time: 0.02
2828.81602969 711.133 -1618.88632948 20.8377532784 77.3095892778 -11.9088319297 -0.0633512 -0.616859 -2.72941 -0.0593154 -0.441998 -2.76309 -0.0354953 0.150283 -2.79416 -0.0462705 -0.292714 -2.78285 -18.3815 6.76457 6.81078 -18.3532 9.37503 8.9678 -0.0 0.0 -0.0 5.39302 12.1166 10.513 -1.03759 -36.3755 60.8822 1.38786 -34.5069 0.431055 -84.7583 -8.4217 5.19046 -0.391567 20.7256 6.01767 -0.0 0.0 -0.0 -0.427355 5.81751 1.55611 -4.59248 22.3068 -72.9609 0.432309 12.0877 -0.0457723 49.25 0.915641 6.03336 0.570292 -4.77892 -5.75769 0.0 0.0 0.0 2.77317 26.6524 -8.3894 -1.60435 0.0627261 0.238213 26.3817 8.91084 -3.49221 -5.30663 0.0 0.0 -0.0 0.0 -0.0 9.0806 11.5275 -11.5067 -38.926 0.399859 -5.84736 5.102 -6.62431 0.736887 7.0059 -0.0 -0.0 0.0 0.0 0.0 
2830.09279855 711.133 -1610.74043264 23.1923510558 78.5547319355 -14.3164829001 -0.0633512 -0.616859 -2.72941 -0.0593154 -0.441998 -2.76309 -0.0354953 0.150283 -2.79416 -0.0462705 -0.292714 -2.78285 -18.3815 6.76457 6.81078 -18.3532 9.37503 8.9678 -0.0 0.0 -0.0 5.39302 12.1166 10.513 -1.03759 -36.3755 60.8822 1.38786 -34.5069 0.431055 -84.7583 -8.4217 5.19046 -0.391567 20.7256 6.01767 -0.0 0.0 -0.0 -0.427355 5.81751 1.55611 -4.59248 22.3068 -72.9609 0.432309 12.0877 -0.0457723 49.25 0.915641 6.03336 0.570292 -4.77892 -5.75769 0.0 0.0 0.0 2.77317 26.6524 -8.3894 -1.60435 0.0627261 0.238213 26.3817 8.91084 -3.49221 -5.30663 0.0 0.0 -0.0 0.0 -0.0 9.0806 11.5275 -11.5067 -38.926 0.399859 -5.84736 5.102 -6.62431 0.736887 7.0059 -0.0 -0.0 0.0 0.0 0.0 
2818.31252434 710.87 -1593.79922039 26.87529913 79.852891073 -18.0810206447 0.0929391 -0.580399 -2.80285 0.0972201 -0.400944 -2.83407 0.119432 0.197709 -2.85544 0.108145 -0.255547 -2.85085 -19.0962 6.47237 7.48273 -19.0281 8.55593 9.54295 -0.0 0.0 -0.0 5.63049 11.5582 10.929 0.263065 -35.812 60.112 1.46067 -35.8862 0.47302 -84.2365 -8.35635 5.2027 -0.960338 22.6649 3.481 -0.0 0.0 -0.0 -0.678093 3.75801 1.79835 -5.03118 21.7234 -72.6311 0.279277 7.8768 -0.0192273 49.2036 0.912385 6.02839 0.434095 -5.92585 -5.32095 0.0 0.0 0.0 -1.38357 25.3511 -7.17095 1.27752 -0.0547111 -0.188401 26.6564 9.61037 -3.5255 -4.79874 0.0 0.0 -0.0 0.0 -0.0 12.1131 10.3606 -13.0451 -39.863 0.458072 -5.9791 7.73027 -5.44291 1.10826 7.87043 -0.0 -0.0 0.0 0.0 0.0 
2803.94671551 711.018 -1575.87971723 35.8871544808 80.6431579114 -27.4483006416 0.107895 -0.621677 -2.86303 0.112348 -0.438313 -2.89675 0.137008 0.173268 -2.92457 0.12519 -0.290587 -2.91526 -19.3585 7.45433 7.34104 -19.3491 10.5625 9.83992 -0.0 0.0 -0.0 6.0248 10.957 11.6258 1.03479 -35.2296 59.1189 1.51775 -36.9351 0.506901 -85.0303 -8.45572 5.18384 -1.36332 24.1146 1.79915 -0.0 0.0 -0.0 -1.1985 2.58179 2.67495 -6.13314 21.7637 -71.9969 0.1683 4.76589 -0.00700362 48.2142 0.843955 5.92181 0.18881 -6.08328 -3.77559 0.0 0.0 0.0 -3.16762 29.9011 -6.69836 0.226668 -0.00939981 -0.033514 26.2791 10.8758 -3.48752 -3.70651 0.0 0.0 -0.0 0.0 -0.0 13.5752 10.0971 -11.9135 -38.5197 0.375286 -5.78993 8.81699 -3.37784 1.26233 7.93386 -0.0 -0.0 0.0 0.0 0.0 
2793.62908593 708.013 -1563.43564454 40.9318693941 81.2514601332 -33.2762950912 0.188984 -0.625051 -2.89518 0.19354 -0.439638 -2.92904 0.218458 0.174481 -2.95669 0.20638 -0.294454 -2.94717 -18.2973 7.99925 8.28352 -18.2421 10.9534 10.801 -0.0 0.0 -0.0 6.41289 10.3365 12.3246 2.99529 -34.6177 58.7393 1.62364 -38.8068 0.571914 -84.9151 -8.44132 5.18666 -1.74837 25.2235 0.130826 -0.0 0.0 -0.0 -1.62596 1.67255 3.38926 -7.39612 20.7236 -71.1476 0.195871 5.54212 -0.0094805 48.796 0.883968 5.98462 -0.36837 -8.58637 -1.18763 0.0 0.0 0.0 -5.94962 28.5046 -4.59036 1.35162 -0.0580136 -0.199291 28.0774 4.96364 -3.68014 -2.55536 0.0 0.0 -0.0 0.0 -0.0 17.6792 11.8331 -11.9789 -40.7136 0.512789 -6.09788 10.4835 -2.52404 1.49408 8.73423 -0.0 -0.0 0.0 0.0 0.0 
2784.66767405 706.216 -1552.61226671 39.8548218019 81.7444153653 -32.892178521 0.230638 -0.576167 -2.92216 0.235304 -0.389138 -2.95287 0.257722 0.226846 -2.96973 0.245499 -0.244802 -2.96831 -17.979 7.9452 8.44876 -17.9055 10.7066 10.8952 -0.0 0.0 -0.0 7.21979 8.86256 13.8249 3.72192 -34.3759 57.2146 1.64307 -39.1401 0.584138 -84.5336 -8.39357 5.1958 -2.26728 27.0564 -1.86072 -0.0 0.0 -0.0 -2.06463 0.810704 4.1206 -8.33653 19.7745 -70.1894 0.200855 5.68223 -0.00996789 49.6084 0.940916 6.07166 -0.807768 -8.27621 1.78333 0.0 0.0 0.0 -6.25698 29.5045 -3.12881 1.17174 -0.050021 -0.172846 27.6402 4.29524 -3.63302 -0.934357 0.0 0.0 -0.0 0.0 -0.0 21.0581 14.6329 -11.9851 -34.1681 0.138016 -5.16497 10.56 -3.93288 1.50158 9.14034 -0.0 -0.0 0.0 0.0 0.0 
